<?xml version="1.0" encoding="UTF-8"?>
<svg width="200" height="200" version="1.1" viewBox="0 0 52.917 52.917" xmlns="http://www.w3.org/2000/svg">
<path d="m10.566 48.209c-2.0183-0.53628-3.7395-1.9127-4.6608-3.7272-0.519-1.0222-0.73409-1.9556-0.73682-3.1974-0.00418-1.9824 0.49131-3.1706 2.1644-5.1882 1.1607-1.3997 2.1458-3.1673 2.3755-4.2624 0.094788-0.45189 0.12745-2.1985 0.10228-5.4702l-0.036952-4.8063-0.35881-0.84458c-0.57082-1.3436-1.0866-2.1233-2.043-3.0885-0.96238-0.9712-1.6384-2.0897-1.9889-3.2905-0.28596-0.9798-0.28926-3.0366-0.0063631-3.9972 0.59046-2.0054 1.933-3.6222 3.7267-4.4882 1.3614-0.65723 2.1148-0.80739 3.675-0.73246 1.9918 0.095656 3.6092 0.84757 4.915 2.285 1.2367 1.3614 1.7215 2.6214 1.8996 4.9371 0.14122 1.8366 0.45385 3.1245 1.0518 4.3329 0.35718 0.72186 0.7271 1.1876 1.8287 2.3023 0.75954 0.76857 1.381 1.4485 1.381 1.5109 0 0.06243-0.20175 0.22088-0.44833 0.3521-0.68688 0.36553-2.0162 1.7295-2.408 2.4707-0.1929 0.36498-0.36978 0.68625-0.39306 0.71393-0.02327 0.02768-0.7188-0.6061-1.5456-1.4084-1.1693-1.1347-1.5983-1.4764-1.9311-1.5382-0.9514-0.17665-2.0834 0.48248-2.2365 1.3023-0.03981 0.21309-0.0556 2.3963-0.03511 4.8517l0.03723 4.4642 0.3254 0.88149c0.4379 1.1862 1.1145 2.2784 2.2196 3.5827 1.8704 2.2077 2.4729 4.2423 1.9651 6.636-0.54929 2.5893-2.7386 4.8239-5.3151 5.425-0.9796 0.22853-2.6458 0.2245-3.5228-0.0085zm28.893 0.0046c-1.8838-0.48746-3.6808-1.8718-4.5311-3.4906-0.62079-1.1818-0.81063-1.9134-0.95479-3.6799-0.26881-3.2938-0.95139-4.7808-3.1202-6.7972-0.63064-0.58633-1.144-1.1293-1.1408-1.2065 0.0032-0.07728 0.3109-0.33052 0.68372-0.56279 0.81972-0.51066 1.7172-1.455 2.2363-2.3529 0.21096-0.36493 0.42904-0.66351 0.48461-0.66351 0.05557 0 0.60534 0.52738 1.2217 1.172 1.482 1.5499 1.7311 1.7238 2.4683 1.7238 0.66583 0 1.1077-0.18802 1.5551-0.66173l0.30478-0.32269 0.03746-4.5451c0.04185-5.0776 0.01179-5.3389-0.79964-6.9498-0.49488-0.9825-0.63206-1.1809-1.922-2.779-1.6857-2.0885-2.2601-3.9347-1.8807-6.0452 0.30304-1.6857 1.3202-3.4158 2.6024-4.4266 0.79078-0.62338 2.1133-1.2324 3.0846-1.4205 1.0616-0.20559 2.8395-0.097591 3.7955 0.23055 3.4214 1.1744 5.4683 4.7428 4.7213 8.2307-0.24458 1.142-0.82961 2.2408-1.8452 3.4658-1.1839 1.4279-1.7923 2.3816-2.2734 3.5631l-0.40011 0.98267-0.03699 4.659c-0.04209 5.3008-0.0064 5.6072 0.85556 7.3348 0.38153 0.76475 0.77445 1.2969 1.5976 2.1638 1.2381 1.3039 1.7906 2.2904 2.1077 3.7639 0.24434 1.1351 0.16466 2.7573-0.19066 3.8816-0.31693 1.0028-1.2749 2.4416-2.1144 3.1757-0.73579 0.6434-2.3003 1.4254-3.2306 1.6148-0.88442 0.18006-2.506 0.15176-3.316-0.05787z" fill="#fff" stroke-width=".12128"/>
</svg>
