<?xml version="1.0" encoding="UTF-8" standalone="no"?>
<!-- Created with Inkscape (http://www.inkscape.org/) -->

<svg
   width="200"
   height="200"
   viewBox="0 0 52.916665 52.916668"
   version="1.1"
   id="svg5"
   inkscape:version="1.1.1 (3bf5ae0d25, 2021-09-20)"
   sodipodi:docname="logo.svg"
   xmlns:inkscape="http://www.inkscape.org/namespaces/inkscape"
   xmlns:sodipodi="http://sodipodi.sourceforge.net/DTD/sodipodi-0.dtd"
   xmlns="http://www.w3.org/2000/svg"
   xmlns:svg="http://www.w3.org/2000/svg">
  <sodipodi:namedview
     id="namedview7"
     pagecolor="#ffffff"
     bordercolor="#666666"
     borderopacity="1.0"
     inkscape:pageshadow="2"
     inkscape:pageopacity="0.0"
     inkscape:pagecheckerboard="0"
     inkscape:document-units="mm"
     showgrid="false"
     units="px"
     inkscape:snap-global="false"
     inkscape:zoom="2.0762433"
     inkscape:cx="-1.2040978"
     inkscape:cy="94.642089"
     inkscape:window-width="2560"
     inkscape:window-height="1009"
     inkscape:window-x="-8"
     inkscape:window-y="-8"
     inkscape:window-maximized="1"
     inkscape:current-layer="layer1" />
  <defs
     id="defs2" />
  <g
     inkscape:label="Layer 1"
     inkscape:groupmode="layer"
     id="layer1">
    <path
       style="fill:#ffffff;stroke-width:0.12128"
       d="M 10.566472,48.208744 C 8.5481589,47.672468 6.8269325,46.296004 5.905667,44.481499 5.386669,43.459289 5.1715768,42.525912 5.1688488,41.284145 c -0.00418,-1.982435 0.4913055,-3.170561 2.1643681,-5.188158 1.1606824,-1.399698 2.1458159,-3.16734 2.3755244,-4.262439 0.094788,-0.451892 0.127446,-2.198491 0.1022842,-5.470165 L 9.7740737,21.557078 9.4152675,20.712494 C 8.8444443,19.36885 8.3286997,18.589183 7.3722322,17.623947 6.4098479,16.652746 5.7337997,15.534259 5.3833256,14.333403 5.0973677,13.353601 5.0940643,11.296781 5.3769625,10.336178 5.9674243,8.3307954 7.3099359,6.7139613 9.1036315,5.8480198 10.465014,5.1907875 11.218405,5.0406314 12.778659,5.1155622 c 1.991827,0.095656 3.609212,0.84757 4.914983,2.2849519 1.236726,1.3613776 1.721521,2.6213799 1.899583,4.9371169 0.141223,1.836603 0.45385,3.124512 1.051781,4.332927 0.357182,0.721865 0.7271,1.187577 1.82874,2.302304 0.759543,0.768566 1.380986,1.448476 1.380986,1.510912 0,0.06243 -0.201749,0.22088 -0.44833,0.352102 -0.686877,0.365526 -2.016229,1.729515 -2.407955,2.470698 -0.192898,0.364981 -0.369775,0.68625 -0.393063,0.71393 -0.02327,0.02768 -0.718801,-0.606104 -1.545597,-1.408411 -1.169303,-1.134672 -1.598309,-1.476386 -1.931089,-1.538174 -0.951404,-0.176647 -2.083372,0.482481 -2.236483,1.302275 -0.03981,0.213088 -0.0556,2.396336 -0.03511,4.851662 l 0.03723,4.464229 0.325404,0.881487 c 0.437899,1.186221 1.114513,2.278365 2.219613,3.582742 1.870427,2.207712 2.472914,4.242267 1.965112,6.636017 -0.549292,2.589336 -2.738574,4.82386 -5.315112,5.424951 -0.979599,0.228533 -2.645777,0.224495 -3.522818,-0.0085 z m 28.892643,0.0046 c -1.88379,-0.48746 -3.680778,-1.871774 -4.531146,-3.49057 -0.620789,-1.181757 -0.810632,-1.913438 -0.95479,-3.679899 -0.268809,-3.293802 -0.95139,-4.780758 -3.120242,-6.797234 -0.630636,-0.586329 -1.143975,-1.129276 -1.140754,-1.206548 0.0032,-0.07728 0.310899,-0.330525 0.68372,-0.562786 0.819718,-0.510663 1.717245,-1.454965 2.236311,-2.352863 0.210965,-0.364928 0.429039,-0.663508 0.484607,-0.663508 0.05557,0 0.605339,0.527377 1.221704,1.171953 1.482045,1.549859 1.731064,1.723763 2.46831,1.723763 0.665826,0 1.107686,-0.188021 1.555091,-0.661727 l 0.304776,-0.322691 0.03746,-4.54513 c 0.04185,-5.077568 0.01179,-5.338864 -0.799638,-6.94982 -0.494878,-0.982497 -0.632064,-1.180856 -1.921999,-2.779023 -1.685674,-2.088458 -2.260051,-3.934735 -1.88066,-6.045193 0.303039,-1.6857388 1.320152,-3.4158382 2.602387,-4.4266407 0.790783,-0.623383 2.113279,-1.2324198 3.084623,-1.4205323 1.061592,-0.2055902 2.839526,-0.097591 3.795495,0.2305539 3.42141,1.1744313 5.468325,4.7428301 4.721303,8.2306741 -0.244581,1.141952 -0.829606,2.240761 -1.845239,3.465773 -1.183866,1.427926 -1.792324,2.381566 -2.273416,3.563137 l -0.400106,0.982666 -0.03699,4.658951 c -0.04209,5.300841 -0.0064,5.607185 0.855564,7.334833 0.381532,0.764753 0.774452,1.296938 1.597565,2.163797 1.238101,1.303901 1.790554,2.290448 2.107739,3.763907 0.244342,1.135068 0.164658,2.757271 -0.190665,3.881561 -0.316928,1.002801 -1.274866,2.441564 -2.114373,3.175663 -0.735786,0.643399 -2.30027,1.425405 -3.230598,1.614811 -0.884415,0.180058 -2.505964,0.151762 -3.316044,-0.05787 z"
       id="path2962" />
  </g>
</svg>
