<?xml version="1.0" encoding="UTF-8"?>
<svg version="1.1" viewBox="0 0 100 100" xmlns="http://www.w3.org/2000/svg">
<path d="m43.953 95.105c-17.382-2.1712-32.695-15.397-37.658-32.523-6.959-24.014 7.1157-49.379 31.287-56.383 10.057-2.9145 21.962-1.9899 31.577 2.4524 9.088 4.1989 17.48 12.462 21.802 21.466 7.2975 15.204 5.6686 33.43-4.1673 46.632-10.163 13.641-26.058 20.452-42.84 18.356zm-3.9303-9.3486c0.30639-0.30633 0.48653-1.8424 0.48706-4.1531l0.0011-3.6669-2.6903 0.13835c-4.9408 0.25406-8.1534-1.4051-9.8558-5.0899-1.3455-2.9126-2.8107-4.8835-4.3269-5.8205-2.3459-1.4499-1.3972-2.7813 1.4166-1.988 1.8008 0.50765 2.6669 1.2232 4.6558 3.8461 2.0731 2.734 3.974 3.8445 6.5854 3.8472 2.8696 0.0042 4.6175-0.66235 4.6236-1.7596 0.0029-0.47961 0.43337-1.6212 0.95709-2.537l0.95218-1.665-3.1155-0.66949c-9.2616-1.9902-13.765-7.7748-13.785-17.705-0.0069-3.5604 0.76105-6.4953 2.2833-8.7255 0.99784-1.4619 1.0805-1.9089 1.1162-6.0358 0.04781-5.5277 0.44986-6.4701 2.6058-6.1082 0.8165 0.13707 3.1281 1.0655 5.1369 2.0632l3.6524 1.814 3.1701-0.60653c4.0305-0.77116 8.2447-0.77116 12.275 0l3.1701 0.60653 3.6524-1.814c2.0088-0.99769 4.3204-1.9261 5.1369-2.0632 2.156-0.36197 2.558 0.58046 2.6058 6.1082 0.03582 4.1269 0.11833 4.5739 1.1162 6.0358 3.2804 4.8059 3.0258 14.116-0.53645 19.628-2.357 3.6467-6.0906 5.8471-11.793 6.9501l-2.2607 0.43731 1.0452 2.1098c0.97478 1.9678 1.0588 2.5983 1.2478 9.3632 0.2378 8.514 0.24642 8.5312 3.7213 7.4276 1.1846-0.3763 3.7037-1.5505 5.5979-2.6094 4.6055-2.5745 11.136-9.0358 13.832-13.686 7.0197-12.106 7.0197-26.791 0-38.897-2.6957-4.649-9.2263-11.111-13.832-13.688-9.4806-5.3029-20.302-6.4133-30.501-3.1295-5.9072 1.9019-9.9748 4.4222-14.717 9.1183-5.0228 4.9743-7.5715 8.9865-9.7228 15.306l-1.5486 4.5487-0.01686 6.8881c-0.01769 7.2275 0.31592 9.3316 2.2805 14.384 3.5068 9.0183 11.949 17.627 20.894 21.306 2.6233 1.0788 3.7704 1.205 4.4823 0.49315z" fill="#fff" stroke-width=".40518"/>
</svg>
